<svg width="450" height="125" xmlns="http://www.w3.org/2000/svg" xmlns:svg="http://www.w3.org/2000/svg" class="icon">
 <!-- Created with SVG-edit - http://svg-edit.googlecode.com/ -->
 <g>
  <title>Layer 1</title>
  <g stroke="null" id="svg_7">
   <text stroke="#000000" fill="#aaaaaa" stroke-width="0" x="300.61296" y="425.8361" id="svg_1" font-size="24" font-family="Sans-serif" text-anchor="middle" xml:space="preserve" transform="matrix(2.894014723511757,0,0,3.094331128093442,-640.7535237119971,-1211.2018474298372) " font-weight="normal" font-style="normal">eep  yping</text>
   <text stroke="#000000" fill="#fd5b78" stroke-width="0" stroke-dasharray="null" stroke-linejoin="null" stroke-linecap="null" x="71.63365" y="470.20759" id="svg_2" font-size="24" font-family="Sans-serif" text-anchor="middle" xml:space="preserve" transform="matrix(3.526341986985345,0,0,3.526341986985345,-205.97554640922422,-1552.8904579567588) ">K</text>
   <text stroke="#000000" fill="#fd5b78" stroke-width="0" stroke-dasharray="null" stroke-linejoin="null" stroke-linecap="null" x="158.00777" y="560.25052" id="svg_3" font-size="24" font-family="Sans-serif" text-anchor="middle" xml:space="preserve" transform="matrix(3.8502059402667212,0,0,3.8502059402667212,-405.8115988428029,-2050.7383964224696) ">T</text>
   <line stroke="#fd5b78" fill="none" stroke-dasharray="null" stroke-linejoin="null" stroke-linecap="null" x1="175.4911" y1="44.19047" x2="430.35772" y2="44.19047" id="svg_4" stroke-width="14"/>
   <polygon stroke="#ffbb22" id="svg_6" fill="none" points="185.74808373428095,102.4274346070215 185.93805849726778,102.75792869698307 186.31397428586934,102.69466646536785 186.05834428629896,102.97746258367079 186.23470032182377,103.31543400351984 185.88673535006092,103.15970061243752 185.61980829180538,103.43186115310345 185.66037912942556,103.05281305718563 185.3190808490108,102.8830394066008 185.69210427930375,102.80449825979485 185.74808373428095,102.4274346070215 185.93805849726778,102.75792869698307 " stroke-width="10"/>
   <path stroke="#ffbb22" fill="#fd5b78" stroke-width="0" stroke-dasharray="null" stroke-linejoin="null" stroke-linecap="null" d="m295.80467,49.53969l17.18765,-0.43846c0,0 -8.83936,12.27689 -8.83936,12.27689c0,0 -8.34829,-11.39997 -8.34829,-11.83843z" id="svg_9"/>
  </g>
 </g>
</svg>