<?xml version="1.0" standalone="no"?><!DOCTYPE svg PUBLIC "-//W3C//DTD SVG 1.1//EN" "http://www.w3.org/Graphics/SVG/1.1/DTD/svg11.dtd"><svg t="1537708353314" class="icon" style="" viewBox="0 0 1024 1024" version="1.1" xmlns="http://www.w3.org/2000/svg" p-id="3256" xmlns:xlink="http://www.w3.org/1999/xlink" width="200" height="200"><defs><style type="text/css"></style></defs><path d="M889.6 96h-240s-35.2 0-38.4 41.6c0 19.2 16 38.4 38.4 38.4h140.8l-179.2 179.2C556.8 313.6 489.6 288 416 288 240 288 96 432 96 608s144 320 320 320 320-144 320-320c0-73.6-25.6-140.8-67.2-195.2l179.2-179.2v140.8c0 22.4 19.2 38.4 38.4 38.4 22.4 0 38.4-19.2 38.4-41.6V131.2h3.2C924.8 96 889.6 96 889.6 96zM416 848c-131.2 0-236.8-105.6-236.8-236.8 0-131.2 105.6-236.8 236.8-236.8s236.8 105.6 236.8 236.8c0 131.2-105.6 236.8-236.8 236.8z" p-id="3257"></path></svg>