<?xml version="1.0" standalone="no"?><!DOCTYPE svg PUBLIC "-//W3C//DTD SVG 1.1//EN" "http://www.w3.org/Graphics/SVG/1.1/DTD/svg11.dtd"><svg t="1537708875564" class="icon" style="" viewBox="0 0 1024 1024" version="1.1" xmlns="http://www.w3.org/2000/svg" p-id="10586" xmlns:xlink="http://www.w3.org/1999/xlink" width="200" height="200"><defs><style type="text/css"></style></defs><path d="M476.01664 721.69472a20.48 20.48 0 0 0 20.48 20.48h48.37376a20.48 20.48 0 0 0 20.48-20.48v-66.17088a70.73792 70.73792 0 0 0 26.64448-55.1936 71.33184 71.33184 0 0 0-142.62272 0c0 21.62688 9.95328 41.82016 26.64448 55.1936v66.17088z m44.68736-151.552a30.3104 30.3104 0 0 1 30.35136 30.208c0 10.87488-6.10304 20.97152-15.95392 26.3168a20.48 20.48 0 0 0-10.69056 17.98144v56.56576h-7.41376v-56.56576c0-7.49568-4.096-14.41792-10.69056-17.98144a30.1056 30.1056 0 0 1-15.95392-26.3168 30.28992 30.28992 0 0 1 30.35136-30.208z" fill="" p-id="10587"></path><path d="M295.424 831.22176h450.56a20.48 20.48 0 0 0 20.48-20.48V463.72864a20.48 20.48 0 0 0-20.48-20.48H338.1248a170.02496 170.02496 0 0 1 41.69728-175.9232c67.42016-66.53952 177.664-67.11296 245.71904-1.37216l50.72896 50.05312 28.7744-29.16352-50.97472-50.29888c-83.98848-81.16224-219.91424-80.42496-303.0016 1.6384a211.10784 211.10784 0 0 0-56.0128 205.12768 20.43904 20.43904 0 0 0-20.09088 20.39808v347.01312a20.43904 20.43904 0 0 0 20.45952 20.50048z m430.08-40.96h-409.6V484.20864h409.6v306.05312z" fill="" p-id="10588"></path></svg>