<svg width="1024" height="1024" xmlns="http://www.w3.org/2000/svg" xmlns:svg="http://www.w3.org/2000/svg" class="icon">
 <!-- Created with SVG-edit - http://svg-edit.googlecode.com/ -->
 <g>
  <title>Layer 1</title>
  <text font-style="normal" font-weight="normal" stroke="#000000" transform="matrix(4.714571218497003,0,0,5.040901954813236,-1055.403904185823,-1986.660913520651) " xml:space="preserve" text-anchor="middle" font-family="Sans-serif" font-size="24" id="svg_1" y="489.29939" x="299.27223" stroke-width="0" fill="#aaaaaa">eep  yping</text>
  <text stroke="#000000" transform="matrix(5.744680669158696,0,0,5.744680669158696,-347.1173424157896,-2543.2977805659175) " xml:space="preserve" text-anchor="middle" font-family="Sans-serif" font-size="24" id="svg_2" y="526.87407" x="70.53333" stroke-linecap="null" stroke-linejoin="null" stroke-dasharray="null" stroke-width="0" fill="#fd5b78">K</text>
  <text stroke="#000000" transform="matrix(6.272279806939251,0,0,6.272279806939251,-672.665548362082,-3354.3301304740608) " xml:space="preserve" text-anchor="middle" font-family="Sans-serif" font-size="24" id="svg_3" y="612.15045" x="157" stroke-linecap="null" stroke-linejoin="null" stroke-dasharray="null" stroke-width="0" fill="#fd5b78">T</text>
  <line stroke="#fd5b78" stroke-width="14" id="svg_4" y2="384" x2="683.19721" y1="384" x1="268" stroke-linecap="null" stroke-linejoin="null" stroke-dasharray="null" fill="none"/>
  <polygon stroke="#ffbb22" transform="rotate(-10.721639633178711 284.8553466796876,479.6431884765622) " stroke-width="10" points="284.8553466796875,478.8587646484375 285.05926513671875,479.4453430175781 285.6801452636719,479.4580078125 285.1852722167969,479.83319091796875 285.3651123046875,480.4276123046875 284.8553466796875,480.0728759765625 284.3456115722656,480.4276123046875 284.5254211425781,479.83319091796875 284.03057861328125,479.4580078125 284.6514587402344,479.4453430175781 284.8553466796875,478.8587646484375 285.05926513671875,479.4453430175781 " strokeWidth="14" strokecolor="#fd5b78" fill="none" orient="point" r2="1.6" r="4" point="5" shape="star" id="svg_6" cy="580" cx="115"/>
  <path stroke="#ffbb22" id="svg_9" d="m464,392.71429l28,-0.71429c0,0 -14.4,20 -14.4,20c0,0 -13.6,-18.57143 -13.6,-19.28571z" stroke-linecap="null" stroke-linejoin="null" stroke-dasharray="null" stroke-width="0" fill="#fd5b78"/>
 </g>
</svg>